<svg xmlns="http://www.w3.org/2000/svg" width="1200" height="720" viewBox="0 0 1200 720" role="img" aria-label="Median encode throughput by dataset"><rect width="100%" height="100%" fill="#ffffff"/><style>text{font-family:Inter,Arial,sans-serif;fill:#17202a}.title{font-size:28px;font-weight:700}.subtitle{font-size:14px;fill:#5d6d7e}.axis{font-size:12px;fill:#34495e}.label{font-size:11px;fill:#34495e}.legend{font-size:13px;fill:#17202a}</style><text class="title" x="88" y="42">Median encode throughput by dataset</text><text class="subtitle" x="88" y="66">Higher is better. MB/s, log10 scale.</text><line x1="88" y1="570.0" x2="1158" y2="570.0" stroke="#e7edf3" stroke-width="1"/><text class="axis" x="78" y="574.0" text-anchor="end">1 MB/s</text><line x1="88" y1="474.4" x2="1158" y2="474.4" stroke="#e7edf3" stroke-width="1"/><text class="axis" x="78" y="478.4" text-anchor="end">8 MB/s</text><line x1="88" y1="378.8" x2="1158" y2="378.8" stroke="#e7edf3" stroke-width="1"/><text class="axis" x="78" y="382.8" text-anchor="end">66 MB/s</text><line x1="88" y1="283.2" x2="1158" y2="283.2" stroke="#e7edf3" stroke-width="1"/><text class="axis" x="78" y="287.2" text-anchor="end">535 MB/s</text><line x1="88" y1="187.6" x2="1158" y2="187.6" stroke="#e7edf3" stroke-width="1"/><text class="axis" x="78" y="191.6" text-anchor="end">4342 MB/s</text><line x1="88" y1="92.0" x2="1158" y2="92.0" stroke="#e7edf3" stroke-width="1"/><text class="axis" x="78" y="96.0" text-anchor="end">35246 MB/s</text><line x1="88" y1="92" x2="88" y2="570" stroke="#93a4b7" stroke-width="1.2"/><line x1="88" y1="570" x2="1158" y2="570" stroke="#93a4b7" stroke-width="1.2"/><rect x="109.4" y="214.9" width="29.9" height="355.1" fill="#276EF1" rx="2"><title>binary_blobs: surp 2386 MB/s</title></rect><rect x="143.3" y="229.7" width="29.9" height="340.3" fill="#E4572E" rx="2"><title>binary_blobs: json 1726 MB/s</title></rect><rect x="177.2" y="170.7" width="29.9" height="399.3" fill="#7A5CFA" rx="2"><title>binary_blobs: msgpack 6290 MB/s</title></rect><rect x="211.1" y="92.0" width="29.9" height="478.0" fill="#F4A261" rx="2"><title>binary_blobs: protobuf 35246 MB/s</title></rect><text class="label" x="177.2" y="606" text-anchor="end" transform="rotate(-35 177.2 606)">binary_blobs</text><rect x="287.7" y="249.5" width="29.9" height="320.5" fill="#276EF1" rx="2"><title>mixed_api_events: surp 1120 MB/s</title></rect><rect x="321.6" y="253.9" width="29.9" height="316.1" fill="#E4572E" rx="2"><title>mixed_api_events: json 1016 MB/s</title></rect><rect x="355.5" y="245.4" width="29.9" height="324.6" fill="#7A5CFA" rx="2"><title>mixed_api_events: msgpack 1225 MB/s</title></rect><rect x="389.4" y="282.5" width="29.9" height="287.5" fill="#F4A261" rx="2"><title>mixed_api_events: protobuf 543 MB/s</title></rect><text class="label" x="355.5" y="606" text-anchor="end" transform="rotate(-35 355.5 606)">mixed_api_events</text><rect x="466.1" y="291.0" width="29.9" height="279.0" fill="#276EF1" rx="2"><title>nested_deep: surp 451 MB/s</title></rect><rect x="499.9" y="284.8" width="29.9" height="285.2" fill="#E4572E" rx="2"><title>nested_deep: json 517 MB/s</title></rect><rect x="533.8" y="298.8" width="29.9" height="271.2" fill="#7A5CFA" rx="2"><title>nested_deep: msgpack 380 MB/s</title></rect><rect x="567.7" y="394.7" width="29.9" height="175.3" fill="#F4A261" rx="2"><title>nested_deep: protobuf 47 MB/s</title></rect><text class="label" x="533.8" y="606" text-anchor="end" transform="rotate(-35 533.8 606)">nested_deep</text><rect x="644.4" y="276.6" width="29.9" height="293.4" fill="#276EF1" rx="2"><title>numeric_heavy: surp 618 MB/s</title></rect><rect x="678.3" y="268.1" width="29.9" height="301.9" fill="#E4572E" rx="2"><title>numeric_heavy: json 744 MB/s</title></rect><rect x="712.2" y="268.0" width="29.9" height="302.0" fill="#7A5CFA" rx="2"><title>numeric_heavy: msgpack 746 MB/s</title></rect><rect x="746.0" y="290.4" width="29.9" height="279.6" fill="#F4A261" rx="2"><title>numeric_heavy: protobuf 457 MB/s</title></rect><text class="label" x="712.2" y="606" text-anchor="end" transform="rotate(-35 712.2 606)">numeric_heavy</text><rect x="822.7" y="285.9" width="29.9" height="284.1" fill="#276EF1" rx="2"><title>small_objects: surp 505 MB/s</title></rect><rect x="856.6" y="275.8" width="29.9" height="294.2" fill="#E4572E" rx="2"><title>small_objects: json 629 MB/s</title></rect><rect x="890.5" y="280.6" width="29.9" height="289.4" fill="#7A5CFA" rx="2"><title>small_objects: msgpack 566 MB/s</title></rect><rect x="924.4" y="289.4" width="29.9" height="280.6" fill="#F4A261" rx="2"><title>small_objects: protobuf 467 MB/s</title></rect><text class="label" x="890.5" y="606" text-anchor="end" transform="rotate(-35 890.5 606)">small_objects</text><rect x="1001.1" y="254.7" width="29.9" height="315.3" fill="#276EF1" rx="2"><title>string_heavy: surp 999 MB/s</title></rect><rect x="1035.0" y="258.6" width="29.9" height="311.4" fill="#E4572E" rx="2"><title>string_heavy: json 917 MB/s</title></rect><rect x="1068.8" y="257.5" width="29.9" height="312.5" fill="#7A5CFA" rx="2"><title>string_heavy: msgpack 940 MB/s</title></rect><rect x="1102.7" y="276.9" width="29.9" height="293.1" fill="#F4A261" rx="2"><title>string_heavy: protobuf 614 MB/s</title></rect><text class="label" x="1068.8" y="606" text-anchor="end" transform="rotate(-35 1068.8 606)">string_heavy</text><rect x="88.0" y="680.0" width="14" height="14" fill="#276EF1" rx="2"/><text class="legend" x="108.0" y="692.0">surp</text><rect x="220.0" y="680.0" width="14" height="14" fill="#E4572E" rx="2"/><text class="legend" x="240.0" y="692.0">json</text><rect x="352.0" y="680.0" width="14" height="14" fill="#7A5CFA" rx="2"/><text class="legend" x="372.0" y="692.0">msgpack</text><rect x="484.0" y="680.0" width="14" height="14" fill="#F4A261" rx="2"/><text class="legend" x="504.0" y="692.0">protobuf</text></svg>
