<svg xmlns="http://www.w3.org/2000/svg" width="1200" height="720" viewBox="0 0 1200 720" role="img" aria-label="Serialized size by dataset"><rect width="100%" height="100%" fill="#ffffff"/><style>text{font-family:Inter,Arial,sans-serif;fill:#17202a}.title{font-size:28px;font-weight:700}.subtitle{font-size:14px;fill:#5d6d7e}.axis{font-size:12px;fill:#34495e}.label{font-size:11px;fill:#34495e}.legend{font-size:13px;fill:#17202a}</style><text class="title" x="88" y="42">Serialized size by dataset</text><text class="subtitle" x="88" y="66">Lower is better. Bytes, log10 scale.</text><line x1="88" y1="570.0" x2="1158" y2="570.0" stroke="#e7edf3" stroke-width="1"/><text class="axis" x="78" y="574.0" text-anchor="end">1 B</text><line x1="88" y1="474.4" x2="1158" y2="474.4" stroke="#e7edf3" stroke-width="1"/><text class="axis" x="78" y="478.4" text-anchor="end">26 B</text><line x1="88" y1="378.8" x2="1158" y2="378.8" stroke="#e7edf3" stroke-width="1"/><text class="axis" x="78" y="382.8" text-anchor="end">690 B</text><line x1="88" y1="283.2" x2="1158" y2="283.2" stroke="#e7edf3" stroke-width="1"/><text class="axis" x="78" y="287.2" text-anchor="end">17.7 KB</text><line x1="88" y1="187.6" x2="1158" y2="187.6" stroke="#e7edf3" stroke-width="1"/><text class="axis" x="78" y="191.6" text-anchor="end">466.1 KB</text><line x1="88" y1="92.0" x2="1158" y2="92.0" stroke="#e7edf3" stroke-width="1"/><text class="axis" x="78" y="96.0" text-anchor="end">12.0 MB</text><line x1="88" y1="92" x2="88" y2="570" stroke="#93a4b7" stroke-width="1.2"/><line x1="88" y1="570" x2="1158" y2="570" stroke="#93a4b7" stroke-width="1.2"/><rect x="109.4" y="110.4" width="23.1" height="459.6" fill="#276EF1" rx="2"><title>binary_blobs: surp 6.4 MB</title></rect><rect x="136.5" y="110.4" width="23.1" height="459.6" fill="#00A676" rx="2"><title>binary_blobs: surp_dedup 6.4 MB</title></rect><rect x="163.6" y="102.0" width="23.1" height="468.0" fill="#E4572E" rx="2"><title>binary_blobs: json 8.5 MB</title></rect><rect x="190.7" y="102.0" width="23.1" height="468.0" fill="#7A5CFA" rx="2"><title>binary_blobs: msgpack 8.5 MB</title></rect><rect x="217.8" y="110.4" width="23.1" height="459.6" fill="#F4A261" rx="2"><title>binary_blobs: protobuf 6.4 MB</title></rect><text class="label" x="177.2" y="606" text-anchor="end" transform="rotate(-35 177.2 606)">binary_blobs</text><rect x="287.7" y="146.4" width="23.1" height="423.6" fill="#276EF1" rx="2"><title>mixed_api_events: surp 1.9 MB</title></rect><rect x="314.8" y="134.8" width="23.1" height="435.2" fill="#00A676" rx="2"><title>mixed_api_events: surp_dedup 2.8 MB</title></rect><rect x="341.9" y="143.9" width="23.1" height="426.1" fill="#E4572E" rx="2"><title>mixed_api_events: json 2.0 MB</title></rect><rect x="369.1" y="148.3" width="23.1" height="421.7" fill="#7A5CFA" rx="2"><title>mixed_api_events: msgpack 1.7 MB</title></rect><rect x="396.2" y="141.7" width="23.1" height="428.3" fill="#F4A261" rx="2"><title>mixed_api_events: protobuf 2.2 MB</title></rect><text class="label" x="355.5" y="606" text-anchor="end" transform="rotate(-35 355.5 606)">mixed_api_events</text><rect x="466.1" y="163.4" width="23.1" height="406.6" fill="#276EF1" rx="2"><title>nested_deep: surp 1.0 MB</title></rect><rect x="493.2" y="151.8" width="23.1" height="418.2" fill="#00A676" rx="2"><title>nested_deep: surp_dedup 1.5 MB</title></rect><rect x="520.3" y="159.3" width="23.1" height="410.7" fill="#E4572E" rx="2"><title>nested_deep: json 1.2 MB</title></rect><rect x="547.4" y="170.5" width="23.1" height="399.5" fill="#7A5CFA" rx="2"><title>nested_deep: msgpack 835.1 KB</title></rect><rect x="574.5" y="154.0" width="23.1" height="416.0" fill="#F4A261" rx="2"><title>nested_deep: protobuf 1.4 MB</title></rect><text class="label" x="533.8" y="606" text-anchor="end" transform="rotate(-35 533.8 606)">nested_deep</text><rect x="644.4" y="126.0" width="23.1" height="444.0" fill="#276EF1" rx="2"><title>numeric_heavy: surp 3.7 MB</title></rect><rect x="671.5" y="126.0" width="23.1" height="444.0" fill="#00A676" rx="2"><title>numeric_heavy: surp_dedup 3.7 MB</title></rect><rect x="698.6" y="112.3" width="23.1" height="457.7" fill="#E4572E" rx="2"><title>numeric_heavy: json 6.0 MB</title></rect><rect x="725.7" y="128.2" width="23.1" height="441.8" fill="#7A5CFA" rx="2"><title>numeric_heavy: msgpack 3.5 MB</title></rect><rect x="752.8" y="117.6" width="23.1" height="452.4" fill="#F4A261" rx="2"><title>numeric_heavy: protobuf 5.0 MB</title></rect><text class="label" x="712.2" y="606" text-anchor="end" transform="rotate(-35 712.2 606)">numeric_heavy</text><rect x="822.7" y="101.6" width="23.1" height="468.4" fill="#276EF1" rx="2"><title>small_objects: surp 8.6 MB</title></rect><rect x="849.8" y="92.0" width="23.1" height="478.0" fill="#00A676" rx="2"><title>small_objects: surp_dedup 12.0 MB</title></rect><rect x="876.9" y="95.7" width="23.1" height="474.3" fill="#E4572E" rx="2"><title>small_objects: json 10.5 MB</title></rect><rect x="904.1" y="104.4" width="23.1" height="465.6" fill="#7A5CFA" rx="2"><title>small_objects: msgpack 7.8 MB</title></rect><rect x="931.2" y="93.5" width="23.1" height="476.5" fill="#F4A261" rx="2"><title>small_objects: protobuf 11.4 MB</title></rect><text class="label" x="890.5" y="606" text-anchor="end" transform="rotate(-35 890.5 606)">small_objects</text><rect x="1001.1" y="164.1" width="23.1" height="405.9" fill="#276EF1" rx="2"><title>string_heavy: surp 1.0 MB</title></rect><rect x="1028.2" y="177.1" width="23.1" height="392.9" fill="#00A676" rx="2"><title>string_heavy: surp_dedup 668.3 KB</title></rect><rect x="1055.3" y="163.0" width="23.1" height="407.0" fill="#E4572E" rx="2"><title>string_heavy: json 1.1 MB</title></rect><rect x="1082.4" y="167.5" width="23.1" height="402.5" fill="#7A5CFA" rx="2"><title>string_heavy: msgpack 925.8 KB</title></rect><rect x="1109.5" y="160.2" width="23.1" height="409.8" fill="#F4A261" rx="2"><title>string_heavy: protobuf 1.2 MB</title></rect><text class="label" x="1068.8" y="606" text-anchor="end" transform="rotate(-35 1068.8 606)">string_heavy</text><rect x="88.0" y="680.0" width="14" height="14" fill="#276EF1" rx="2"/><text class="legend" x="108.0" y="692.0">surp</text><rect x="220.0" y="680.0" width="14" height="14" fill="#00A676" rx="2"/><text class="legend" x="240.0" y="692.0">surp+dedup</text><rect x="352.0" y="680.0" width="14" height="14" fill="#E4572E" rx="2"/><text class="legend" x="372.0" y="692.0">json</text><rect x="484.0" y="680.0" width="14" height="14" fill="#7A5CFA" rx="2"/><text class="legend" x="504.0" y="692.0">msgpack</text><rect x="616.0" y="680.0" width="14" height="14" fill="#F4A261" rx="2"/><text class="legend" x="636.0" y="692.0">protobuf</text></svg>
